PathFileType	4	(X/Y/Z)	../Python\walking\Walking11\task.trc
DataRate	CameraRate	NumFrames	NumMarkers	Units	OrigDataRate	OrigDataStartFrame	OrigNumFrames
200.000000	200.000000	4	30	mm	200.000000	320	512
Frame#	Time	CLAV			STRN			RASI			LASI			RTH1			RTH2			RTH3			RTB1			RTB2			RTB3			RD5M			RTOE			LTH1			LTH2			LTH3			LTB1			LTB2			LTB3			LTOE			LD5M			PE03			PE02			RPSI			LPSI			T10			LHEE			C7			RHEE			RBAK			PE01			
		X1	Y1	Z1	X2	Y2	Z2	X3	Y3	Z3	X4	Y4	Z4	X5	Y5	Z5	X6	Y6	Z6	X7	Y7	Z7	X8	Y8	Z8	X9	Y9	Z9	X10	Y10	Z10	X11	Y11	Z11	X12	Y12	Z12	X13	Y13	Z13	X14	Y14	Z14	X15	Y15	Z15	X16	Y16	Z16	X17	Y17	Z17	X18	Y18	Z18	X19	Y19	Z19	X20	Y20	Z20	X21	Y21	Z21	X22	Y22	Z22	X23	Y23	Z23	X24	Y24	Z24	X25	Y25	Z25	X26	Y26	Z26	X27	Y27	Z27	X28	Y28	Z28	X29	Y29	Z29	X30	Y30	Z30	

321	1.6	1687.141479492188	1433.037719726563	201.5812225341798	1740.067138671876	1239.9189453125	221.3480682373048	1706.085205078126	1016.916320800782	357.1457519531251	1714.680786132813	1035.606811523438	83.95778656005862	1687.105957031251	749.7363281250002	397.346618652344	1637.661743164063	718.0269775390627	375.7011108398439	1666.256469726563	677.0628051757815	372.4849243164064	1630.117431640626	386.8973083496096	353.2445068359376	1568.741821289063	390.8817138671877	356.125946044922	1565.385375976563	341.2097167968751	346.9230346679689	1367.358154296875	108.833236694336	357.147918701172	1413.736450195313	79.56244659423831	324.913055419922	1658.632812500001	723.8843994140627	52.05727005004886	1633.848022460938	682.2649536132815	64.100700378418	1687.718627929688	653.321472167969	72.07950592041018	1656.155883789063	357.774627685547	104.1214752197266	1626.998291015626	319.8164672851564	118.064682006836	1677.036865234376	283.1325073242189	117.9697265625001	1815.884643554688	33.82844161987306	198.1303100585939	1772.179321289063	18.26025390625001	148.5470581054688	1536.843139648438	1063.517211914063	198.3642578125001	1541.176147460938	1059.342529296875	249.1772460937501	1547.655639648438	1069.270385742188	273.0267333984376	1542.497924804688	1078.656616210938	173.4595794677735	1514.90283203125	1266.416870117188	207.6085968017579	1602.966064453126	35.48046493530275	205.8300170898439	1574.551513671876	1528.421264648438	184.1304626464844	1301.829345703125	245.1353454589845	271.5167541503907	1545.934936523438	1447.182983398438	359.9431152343751	1553.722045898438	1120.77734375	226.8567962646486	
322	1.605	1693.279296875001	1433.61279296875	201.3854980468751	1746.110839843751	1240.508666992188	220.8868865966798	1712.240112304688	1018.10693359375	356.498992919922	1720.420776367188	1035.895629882813	83.29907226562503	1695.442504882813	751.4072875976565	397.4922485351565	1646.570434570313	719.0023193359377	375.372528076172	1675.777954101563	678.442565917969	372.3126220703126	1644.159912109376	388.6362915039065	353.1001892089845	1582.703979492188	391.926208496094	355.5631713867189	1579.977783203126	342.1293945312501	346.8401184082032	1386.433471679688	107.7763214111329	358.1744384765626	1433.57373046875	79.17121887207034	326.278778076172	1662.483520507813	724.1944580078127	51.88469696044925	1637.224609375001	682.742858886719	63.85354232788089	1690.817260742188	653.3267822265627	72.08111572265628	1657.251953125001	357.8874511718751	103.9876937866212	1627.915893554688	320.0361633300782	117.8973236083985	1677.852661132813	283.1809387207032	117.9205551147462	1815.937377929688	33.78117752075197	198.1345672607423	1772.181640625001	18.24512100219727	148.5203857421876	1542.868530273438	1064.276245117188	198.1629333496095	1547.266723632813	1060.213623046875	248.9717102050782	1553.793579101563	1070.215576171875	272.7850036621095	1548.496582031251	1079.34521484375	173.2143554687501	1520.989501953125	1267.126220703125	207.1768493652345	1602.981567382813	35.61756896972658	205.9123992919923	1580.821777343751	1529.054931640625	184.0276184082032	1317.388305664063	241.5992889404298	271.148895263672	1552.111938476563	1447.709594726563	359.6629333496095	1559.794311523438	1121.589721679688	226.4835510253907	
323	1.61	1699.404052734376	1434.1591796875	201.1788940429689	1752.145874023438	1241.080810546875	220.4009399414064	1718.389160156251	1019.28369140625	355.833465576172	1726.151489257813	1036.154174804688	82.63955688476565	1703.804931640626	753.1035766601565	397.6313781738284	1655.497192382813	720.0042724609377	375.0931091308595	1685.313720703126	679.8528442382815	372.1742553710939	1658.168823242188	390.342712402344	352.9180297851564	1596.639892578126	392.8642578125002	354.9849548339845	1594.595336914063	342.952850341797	346.732147216797	1405.754028320313	106.4585189819337	359.1066284179689	1453.6171875	78.60430145263675	327.490936279297	1666.228515625001	724.4756469726565	51.75062561035159	1640.507324218751	683.2053222656252	63.6609802246094	1693.816040039063	653.3018188476565	72.08737945556643	1658.286621093751	358.0075988769532	103.8777542114258	1628.784423828126	320.2630004882814	117.7807769775391	1678.617553710938	283.2357788085939	117.8710098266602	1815.997924804688	33.73073959350587	198.1387786865236	1772.181884765626	18.22969055175782	148.4973907470704	1548.887573242188	1065.00341796875	197.9827270507814	1553.349365234376	1061.062377929688	248.7875976562501	1559.925292968751	1071.14306640625	272.5645446777345	1554.486450195313	1080.0009765625	172.9889831542969	1527.065551757813	1267.80517578125	206.7519683837892	1603.002075195313	35.76768493652345	206.0013732910157	1587.078002929688	1529.653564453125	183.926254272461	1333.128051757813	237.7393035888673	270.8795471191407	1558.291137695313	1448.210327148438	359.3829345703126	1565.853393554688	1122.37646484375	226.1211700439454	
324	1.615	1705.518554687501	1434.674560546875	200.9615783691407	1758.174438476563	1241.631591796875	219.8921356201173	1724.531372070313	1020.441223144532	355.1526184082032	1731.875488281251	1036.379150390625	81.9831466674805	1712.196899414063	754.8217773437502	397.7617797851565	1664.443725585938	721.0291748046877	374.8654785156251	1694.864257812501	681.2912597656252	372.0720825195314	1672.142700195313	392.002380371094	352.698699951172	1610.551391601563	393.6841430664065	354.398895263672	1609.237304687501	343.6715698242189	346.599578857422	1425.305786132813	104.8906936645508	359.9412231445314	1473.851440429688	77.8669357299805	328.5476379394532	1669.866333007813	724.730895996094	51.65217971801761	1643.700439453126	683.6562500000002	63.52283477783206	1696.721557617188	653.2532348632815	72.09011840820315	1659.260864257813	358.1361694335939	103.7900009155274	1629.605468750001	320.4979553222657	117.7133483886719	1679.332641601563	283.2982177734376	117.8193969726563	1816.066162109376	33.67724609375001	198.1420135498048	1772.180053710938	18.21367263793946	148.4770965576172	1554.899902343751	1065.694213867188	197.8224639892579	1559.423828125001	1061.883544921875	248.6238708496095	1566.050048828126	1072.046264648438	272.3641357421876	1560.467773437501	1080.6201171875	172.7826538085938	1533.1328125	1268.452270507813	206.3336486816407	1603.027221679688	35.93098449707033	206.0971069335939	1593.322387695313	1530.21533203125	183.8257141113282	1349.056030273438	233.5714721679689	270.7024230957032	1564.474609375001	1448.683471679688	359.1029663085939	1571.900146484376	1123.132080078125	225.7701568603517	
